<mxfile host="app.diagrams.net" agent="Mozilla/5.0 (Windows NT 10.0; Win64; x64) AppleWebKit/537.36 (KHTML, like Gecko) Chrome/136.0.0.0 Safari/537.36" version="27.1.1">
  <diagram id="C5RBs43oDa-KdzZeNtuy" name="Page-1">
    <mxGraphModel dx="1938" dy="431" grid="1" gridSize="10" guides="1" tooltips="1" connect="1" arrows="1" fold="1" page="1" pageScale="1" pageWidth="827" pageHeight="1169" math="0" shadow="0">
      <root>
        <mxCell id="WIyWlLk6GJQsqaUBKTNV-0" />
        <mxCell id="WIyWlLk6GJQsqaUBKTNV-1" parent="WIyWlLk6GJQsqaUBKTNV-0" />
        <mxCell id="htH6oOdIzzyn5wP_Vat4-0" style="edgeStyle=orthogonalEdgeStyle;rounded=0;orthogonalLoop=1;jettySize=auto;html=1;endArrow=none;startFill=0;dashed=1;" parent="WIyWlLk6GJQsqaUBKTNV-1" source="B27XfxdTS6M_Y3DWfWtt-0" target="B27XfxdTS6M_Y3DWfWtt-16" edge="1">
          <mxGeometry relative="1" as="geometry">
            <mxPoint y="709" as="sourcePoint" />
          </mxGeometry>
        </mxCell>
        <mxCell id="htH6oOdIzzyn5wP_Vat4-14" value="1" style="edgeLabel;html=1;align=center;verticalAlign=middle;resizable=0;points=[];" parent="htH6oOdIzzyn5wP_Vat4-0" connectable="0" vertex="1">
          <mxGeometry x="-0.9534" relative="1" as="geometry">
            <mxPoint x="-8" y="-15" as="offset" />
          </mxGeometry>
        </mxCell>
        <mxCell id="htH6oOdIzzyn5wP_Vat4-15" value="n" style="edgeLabel;html=1;align=center;verticalAlign=middle;resizable=0;points=[];" parent="htH6oOdIzzyn5wP_Vat4-0" connectable="0" vertex="1">
          <mxGeometry x="0.899" y="1" relative="1" as="geometry">
            <mxPoint x="5" y="-16" as="offset" />
          </mxGeometry>
        </mxCell>
        <mxCell id="htH6oOdIzzyn5wP_Vat4-1" style="edgeStyle=orthogonalEdgeStyle;rounded=0;orthogonalLoop=1;jettySize=auto;html=1;endArrow=none;startFill=0;" parent="WIyWlLk6GJQsqaUBKTNV-1" source="B27XfxdTS6M_Y3DWfWtt-0" target="B27XfxdTS6M_Y3DWfWtt-20" edge="1">
          <mxGeometry relative="1" as="geometry" />
        </mxCell>
        <mxCell id="htH6oOdIzzyn5wP_Vat4-8" value="1" style="edgeLabel;html=1;align=center;verticalAlign=middle;resizable=0;points=[];" parent="htH6oOdIzzyn5wP_Vat4-1" connectable="0" vertex="1">
          <mxGeometry x="0.8098" y="-1" relative="1" as="geometry">
            <mxPoint x="-1" y="-9" as="offset" />
          </mxGeometry>
        </mxCell>
        <mxCell id="htH6oOdIzzyn5wP_Vat4-9" value="n" style="edgeLabel;html=1;align=center;verticalAlign=middle;resizable=0;points=[];" parent="htH6oOdIzzyn5wP_Vat4-1" connectable="0" vertex="1">
          <mxGeometry x="-0.9348" y="-2" relative="1" as="geometry">
            <mxPoint x="4" y="-12" as="offset" />
          </mxGeometry>
        </mxCell>
        <mxCell id="htH6oOdIzzyn5wP_Vat4-4" style="edgeStyle=orthogonalEdgeStyle;rounded=0;orthogonalLoop=1;jettySize=auto;html=1;dashed=1;endArrow=none;startFill=0;" parent="WIyWlLk6GJQsqaUBKTNV-1" source="B27XfxdTS6M_Y3DWfWtt-0" target="B27XfxdTS6M_Y3DWfWtt-12" edge="1">
          <mxGeometry relative="1" as="geometry">
            <mxPoint x="-90" y="1134" as="targetPoint" />
          </mxGeometry>
        </mxCell>
        <mxCell id="htH6oOdIzzyn5wP_Vat4-5" value="1" style="edgeLabel;html=1;align=center;verticalAlign=middle;resizable=0;points=[];" parent="htH6oOdIzzyn5wP_Vat4-4" connectable="0" vertex="1">
          <mxGeometry x="0.9399" y="2" relative="1" as="geometry">
            <mxPoint x="13" y="-13" as="offset" />
          </mxGeometry>
        </mxCell>
        <mxCell id="htH6oOdIzzyn5wP_Vat4-16" value="n" style="edgeLabel;html=1;align=center;verticalAlign=middle;resizable=0;points=[];" parent="htH6oOdIzzyn5wP_Vat4-4" connectable="0" vertex="1">
          <mxGeometry x="-0.7833" y="2" relative="1" as="geometry">
            <mxPoint x="13" y="8" as="offset" />
          </mxGeometry>
        </mxCell>
        <mxCell id="B27XfxdTS6M_Y3DWfWtt-0" value="&lt;font style=&quot;vertical-align: inherit;&quot;&gt;&lt;font style=&quot;vertical-align: inherit;&quot;&gt;&lt;font style=&quot;vertical-align: inherit;&quot;&gt;&lt;font style=&quot;vertical-align: inherit;&quot;&gt;jogo&lt;/font&gt;&lt;/font&gt;&lt;/font&gt;&lt;/font&gt;" style="swimlane;fontStyle=1;align=center;verticalAlign=top;childLayout=stackLayout;horizontal=1;startSize=26;horizontalStack=0;resizeParent=1;resizeParentMax=0;resizeLast=0;collapsible=1;marginBottom=0;whiteSpace=wrap;html=1;" parent="WIyWlLk6GJQsqaUBKTNV-1" vertex="1">
          <mxGeometry x="40" y="440" width="250" height="380" as="geometry">
            <mxRectangle x="-180" y="90" width="70" height="30" as="alternateBounds" />
          </mxGeometry>
        </mxCell>
        <mxCell id="B27XfxdTS6M_Y3DWfWtt-1" value="&lt;div&gt;- idJogo: int&amp;nbsp;&amp;nbsp;&lt;/div&gt;&lt;div&gt;- idAdm: int&amp;nbsp;&amp;nbsp;&lt;/div&gt;&lt;div&gt;- titulo: String&amp;nbsp;&amp;nbsp;&lt;/div&gt;&lt;div&gt;- nmEmpresa: String&amp;nbsp;&amp;nbsp;&lt;/div&gt;&lt;div&gt;- preco: Decimal(10,2)&amp;nbsp;&amp;nbsp;&lt;/div&gt;&lt;div&gt;- urlCapa: String&amp;nbsp;&amp;nbsp;&lt;/div&gt;&lt;div&gt;- descricao: Text&amp;nbsp;&amp;nbsp;&lt;/div&gt;&lt;div&gt;- historia: Text&amp;nbsp;&amp;nbsp;&lt;/div&gt;&lt;div&gt;- intuito: Text&amp;nbsp;&amp;nbsp;&lt;/div&gt;&lt;div&gt;- urlDemo: String&amp;nbsp;&amp;nbsp;&lt;/div&gt;&lt;div&gt;- aprovado: boolean&amp;nbsp;&amp;nbsp;&lt;/div&gt;&lt;div&gt;- urlArquivo: String&amp;nbsp;&amp;nbsp;&lt;/div&gt;&lt;div&gt;- dtEnvio: DateTime&amp;nbsp;&amp;nbsp;&lt;/div&gt;&lt;div&gt;- dtAprovacao: DateTime&amp;nbsp;&lt;/div&gt;" style="text;strokeColor=none;fillColor=none;align=left;verticalAlign=top;spacingLeft=4;spacingRight=4;overflow=hidden;rotatable=0;points=[[0,0.5],[1,0.5]];portConstraint=eastwest;whiteSpace=wrap;html=1;" parent="B27XfxdTS6M_Y3DWfWtt-0" vertex="1">
          <mxGeometry y="26" width="250" height="214" as="geometry" />
        </mxCell>
        <mxCell id="B27XfxdTS6M_Y3DWfWtt-2" value="" style="line;strokeWidth=1;fillColor=none;align=left;verticalAlign=middle;spacingTop=-1;spacingLeft=3;spacingRight=3;rotatable=0;labelPosition=right;points=[];portConstraint=eastwest;strokeColor=inherit;" parent="B27XfxdTS6M_Y3DWfWtt-0" vertex="1">
          <mxGeometry y="240" width="250" height="8" as="geometry" />
        </mxCell>
        <mxCell id="B27XfxdTS6M_Y3DWfWtt-3" value="&lt;div&gt;+ criarJogo(idAdm, dadosJogo): void&amp;nbsp;&amp;nbsp;&lt;/div&gt;&lt;div&gt;+ editarJogo(idJogo, novosDados): void&amp;nbsp;&amp;nbsp;&lt;/div&gt;&lt;div&gt;+ deletarJogo(idJogo): void&amp;nbsp;&amp;nbsp;&lt;/div&gt;&lt;div&gt;+ obterDetalhes(idJogo): Jogo&amp;nbsp;&amp;nbsp;&lt;/div&gt;&lt;div&gt;+ listarTodos(): List&amp;lt;Jogo&amp;gt;&amp;nbsp;&amp;nbsp;&lt;/div&gt;&lt;div&gt;+ listarAprovados(): List&amp;lt;Jogo&amp;gt;&amp;nbsp;&amp;nbsp;&lt;/div&gt;&lt;div&gt;+ listarPorAdministrador(idAdm): List&amp;lt;Jogo&amp;gt;&amp;nbsp;&amp;nbsp;&lt;/div&gt;" style="text;strokeColor=none;fillColor=none;align=left;verticalAlign=top;spacingLeft=4;spacingRight=4;overflow=hidden;rotatable=0;points=[[0,0.5],[1,0.5]];portConstraint=eastwest;whiteSpace=wrap;html=1;" parent="B27XfxdTS6M_Y3DWfWtt-0" vertex="1">
          <mxGeometry y="248" width="250" height="132" as="geometry" />
        </mxCell>
        <mxCell id="OUwqPw-LcY0b7HsVoCcp-0" value="&lt;div&gt;&lt;span style=&quot;background-color: transparent; color: light-dark(rgb(0, 0, 0), rgb(255, 255, 255));&quot;&gt;nm=&lt;/span&gt;&lt;span style=&quot;background-color: transparent; color: light-dark(rgb(0, 0, 0), rgb(255, 255, 255));&quot;&gt;Nome&lt;/span&gt;&lt;/div&gt;&lt;div&gt;tel=Telefone&lt;/div&gt;&lt;div&gt;email=E-mail&lt;/div&gt;&lt;div&gt;senha=Senha&lt;/div&gt;&lt;div&gt;vl=Valor monetário (valor)&lt;/div&gt;&lt;div&gt;url=URL (link para mídia ou documento)&lt;/div&gt;&lt;div&gt;desc=Descrição&lt;/div&gt;&lt;div&gt;dt=Data/horário&lt;/div&gt;&lt;div&gt;fl=Flag (booleano: 0 ou 1)&lt;/div&gt;&lt;div&gt;id=Identificador (chave primária/estrangeira)&amp;nbsp;idAdm, etc.&lt;/div&gt;&lt;div&gt;titulo=Título&lt;/div&gt;&lt;div&gt;intuito=Intenção / Objetivo do jogo&lt;/div&gt;&lt;div&gt;historia=História do jogo&lt;/div&gt;&lt;div&gt;comentario=Comentário textual&lt;/div&gt;&lt;div&gt;nota=Nota numérica&lt;/div&gt;&lt;div&gt;&lt;br&gt;&lt;/div&gt;" style="rounded=1;whiteSpace=wrap;html=1;" parent="WIyWlLk6GJQsqaUBKTNV-1" vertex="1">
          <mxGeometry x="-750" y="410" width="283" height="350" as="geometry" />
        </mxCell>
        <mxCell id="B27XfxdTS6M_Y3DWfWtt-8" value="&lt;font style=&quot;vertical-align: inherit;&quot;&gt;&lt;font style=&quot;vertical-align: inherit;&quot;&gt;cliente&lt;/font&gt;&lt;/font&gt;" style="swimlane;fontStyle=1;align=center;verticalAlign=top;childLayout=stackLayout;horizontal=1;startSize=26;horizontalStack=0;resizeParent=1;resizeParentMax=0;resizeLast=0;collapsible=1;marginBottom=0;whiteSpace=wrap;html=1;" parent="WIyWlLk6GJQsqaUBKTNV-1" vertex="1">
          <mxGeometry x="-370" y="830" width="320" height="230" as="geometry">
            <mxRectangle x="-180" y="90" width="70" height="30" as="alternateBounds" />
          </mxGeometry>
        </mxCell>
        <mxCell id="B27XfxdTS6M_Y3DWfWtt-9" value="&lt;div&gt;- idCliente: int&lt;/div&gt;&lt;div&gt;- nm&lt;span style=&quot;background-color: transparent; color: light-dark(rgb(0, 0, 0), rgb(255, 255, 255));&quot;&gt;Cliente&lt;/span&gt;&lt;span style=&quot;background-color: transparent; color: light-dark(rgb(0, 0, 0), rgb(255, 255, 255));&quot;&gt;: String&lt;/span&gt;&lt;/div&gt;&lt;div&gt;- email&lt;span style=&quot;background-color: transparent; color: light-dark(rgb(0, 0, 0), rgb(255, 255, 255));&quot;&gt;Cliente&lt;/span&gt;&lt;span style=&quot;background-color: transparent; color: light-dark(rgb(0, 0, 0), rgb(255, 255, 255));&quot;&gt;: String&lt;/span&gt;&lt;/div&gt;&lt;div&gt;- senhaCliente: String&lt;/div&gt;&lt;div&gt;- tel&lt;span style=&quot;background-color: transparent; color: light-dark(rgb(0, 0, 0), rgb(255, 255, 255));&quot;&gt;Cliente&lt;/span&gt;&lt;span style=&quot;background-color: transparent; color: light-dark(rgb(0, 0, 0), rgb(255, 255, 255));&quot;&gt;: String&lt;/span&gt;&lt;/div&gt;" style="text;strokeColor=none;fillColor=none;align=left;verticalAlign=top;spacingLeft=4;spacingRight=4;overflow=hidden;rotatable=0;points=[[0,0.5],[1,0.5]];portConstraint=eastwest;whiteSpace=wrap;html=1;" parent="B27XfxdTS6M_Y3DWfWtt-8" vertex="1">
          <mxGeometry y="26" width="320" height="84" as="geometry" />
        </mxCell>
        <mxCell id="B27XfxdTS6M_Y3DWfWtt-10" value="" style="line;strokeWidth=1;fillColor=none;align=left;verticalAlign=middle;spacingTop=-1;spacingLeft=3;spacingRight=3;rotatable=0;labelPosition=right;points=[];portConstraint=eastwest;strokeColor=inherit;" parent="B27XfxdTS6M_Y3DWfWtt-8" vertex="1">
          <mxGeometry y="110" width="320" height="8" as="geometry" />
        </mxCell>
        <mxCell id="B27XfxdTS6M_Y3DWfWtt-11" value="&lt;div&gt;+ cadastrarCliente(nome&lt;span style=&quot;background-color: transparent; color: light-dark(rgb(0, 0, 0), rgb(255, 255, 255));&quot;&gt;Cliente&lt;/span&gt;&lt;span style=&quot;background-color: transparent; color: light-dark(rgb(0, 0, 0), rgb(255, 255, 255));&quot;&gt;, email&lt;/span&gt;&lt;span style=&quot;background-color: transparent; color: light-dark(rgb(0, 0, 0), rgb(255, 255, 255));&quot;&gt;Cliente&lt;/span&gt;&lt;span style=&quot;background-color: transparent; color: light-dark(rgb(0, 0, 0), rgb(255, 255, 255));&quot;&gt;, senha&lt;/span&gt;&lt;span style=&quot;background-color: transparent; color: light-dark(rgb(0, 0, 0), rgb(255, 255, 255));&quot;&gt;Cliente&lt;/span&gt;&lt;span style=&quot;background-color: transparent; color: light-dark(rgb(0, 0, 0), rgb(255, 255, 255));&quot;&gt;, tel&lt;/span&gt;&lt;span style=&quot;background-color: transparent; color: light-dark(rgb(0, 0, 0), rgb(255, 255, 255));&quot;&gt;Cliente&lt;/span&gt;&lt;span style=&quot;background-color: transparent; color: light-dark(rgb(0, 0, 0), rgb(255, 255, 255));&quot;&gt;): void&lt;/span&gt;&lt;/div&gt;&lt;div&gt;+ autenticar(email&lt;span style=&quot;background-color: transparent; color: light-dark(rgb(0, 0, 0), rgb(255, 255, 255));&quot;&gt;Cliente&lt;/span&gt;&lt;span style=&quot;background-color: transparent; color: light-dark(rgb(0, 0, 0), rgb(255, 255, 255));&quot;&gt;, senha&lt;/span&gt;&lt;span style=&quot;background-color: transparent; color: light-dark(rgb(0, 0, 0), rgb(255, 255, 255));&quot;&gt;Cliente&lt;/span&gt;&lt;span style=&quot;background-color: transparent; color: light-dark(rgb(0, 0, 0), rgb(255, 255, 255));&quot;&gt;): boolean&lt;/span&gt;&lt;/div&gt;&lt;div&gt;+ editarCliente(id&lt;span style=&quot;background-color: transparent; color: light-dark(rgb(0, 0, 0), rgb(255, 255, 255));&quot;&gt;Cliente&lt;/span&gt;&lt;span style=&quot;background-color: transparent; color: light-dark(rgb(0, 0, 0), rgb(255, 255, 255));&quot;&gt;, novosDados): void&lt;/span&gt;&lt;/div&gt;&lt;div&gt;+ deletarCliente(id&lt;span style=&quot;background-color: transparent; color: light-dark(rgb(0, 0, 0), rgb(255, 255, 255));&quot;&gt;Cliente&lt;/span&gt;&lt;span style=&quot;background-color: transparent; color: light-dark(rgb(0, 0, 0), rgb(255, 255, 255));&quot;&gt;): void&lt;/span&gt;&lt;/div&gt;&lt;div&gt;+ listarCompra(): List&amp;lt;Compra&amp;gt;&lt;/div&gt;&lt;div&gt;+ avaliarJogo(idCompra, notaAvaliacao, comentario): void&lt;/div&gt;" style="text;strokeColor=none;fillColor=none;align=left;verticalAlign=top;spacingLeft=4;spacingRight=4;overflow=hidden;rotatable=0;points=[[0,0.5],[1,0.5]];portConstraint=eastwest;whiteSpace=wrap;html=1;" parent="B27XfxdTS6M_Y3DWfWtt-8" vertex="1">
          <mxGeometry y="118" width="320" height="112" as="geometry" />
        </mxCell>
        <mxCell id="htH6oOdIzzyn5wP_Vat4-6" style="edgeStyle=orthogonalEdgeStyle;rounded=0;orthogonalLoop=1;jettySize=auto;html=1;endArrow=none;startFill=0;dashed=1;" parent="WIyWlLk6GJQsqaUBKTNV-1" source="B27XfxdTS6M_Y3DWfWtt-12" target="B27XfxdTS6M_Y3DWfWtt-8" edge="1">
          <mxGeometry relative="1" as="geometry" />
        </mxCell>
        <mxCell id="htH6oOdIzzyn5wP_Vat4-17" value="1" style="edgeLabel;html=1;align=center;verticalAlign=middle;resizable=0;points=[];" parent="htH6oOdIzzyn5wP_Vat4-6" connectable="0" vertex="1">
          <mxGeometry x="-0.9467" y="-2" relative="1" as="geometry">
            <mxPoint x="-7" y="-10" as="offset" />
          </mxGeometry>
        </mxCell>
        <mxCell id="htH6oOdIzzyn5wP_Vat4-18" value="n" style="edgeLabel;html=1;align=center;verticalAlign=middle;resizable=0;points=[];" parent="htH6oOdIzzyn5wP_Vat4-6" connectable="0" vertex="1">
          <mxGeometry x="0.9289" y="1" relative="1" as="geometry">
            <mxPoint x="6" y="-11" as="offset" />
          </mxGeometry>
        </mxCell>
        <mxCell id="htH6oOdIzzyn5wP_Vat4-7" style="edgeStyle=orthogonalEdgeStyle;rounded=0;orthogonalLoop=1;jettySize=auto;html=1;endArrow=none;startFill=0;dashed=1;" parent="WIyWlLk6GJQsqaUBKTNV-1" source="B27XfxdTS6M_Y3DWfWtt-12" target="B27XfxdTS6M_Y3DWfWtt-20" edge="1">
          <mxGeometry relative="1" as="geometry" />
        </mxCell>
        <mxCell id="htH6oOdIzzyn5wP_Vat4-10" value="1" style="edgeLabel;html=1;align=center;verticalAlign=middle;resizable=0;points=[];" parent="htH6oOdIzzyn5wP_Vat4-7" connectable="0" vertex="1">
          <mxGeometry x="0.9191" relative="1" as="geometry">
            <mxPoint x="9" y="-10" as="offset" />
          </mxGeometry>
        </mxCell>
        <mxCell id="htH6oOdIzzyn5wP_Vat4-11" value="n" style="edgeLabel;html=1;align=center;verticalAlign=middle;resizable=0;points=[];" parent="htH6oOdIzzyn5wP_Vat4-7" connectable="0" vertex="1">
          <mxGeometry x="-0.9277" y="-1" relative="1" as="geometry">
            <mxPoint x="-7" y="-11" as="offset" />
          </mxGeometry>
        </mxCell>
        <mxCell id="B27XfxdTS6M_Y3DWfWtt-12" value="compra" style="swimlane;fontStyle=1;align=center;verticalAlign=top;childLayout=stackLayout;horizontal=1;startSize=26;horizontalStack=0;resizeParent=1;resizeParentMax=0;resizeLast=0;collapsible=1;marginBottom=0;whiteSpace=wrap;html=1;" parent="WIyWlLk6GJQsqaUBKTNV-1" vertex="1">
          <mxGeometry x="20" y="850" width="290" height="190" as="geometry">
            <mxRectangle x="-180" y="90" width="70" height="30" as="alternateBounds" />
          </mxGeometry>
        </mxCell>
        <mxCell id="B27XfxdTS6M_Y3DWfWtt-13" value="&lt;div&gt;&lt;div&gt;- idCompra: int&amp;nbsp;&amp;nbsp;&lt;/div&gt;&lt;div&gt;- idCliente: int&amp;nbsp;&amp;nbsp;&lt;/div&gt;&lt;div&gt;- idJogo: int&amp;nbsp;&amp;nbsp;&lt;/div&gt;&lt;div&gt;- dtCompra: DateTime&amp;nbsp;&amp;nbsp;&lt;/div&gt;&lt;div&gt;- vlPago: Decimal(10,2)&lt;/div&gt;&lt;/div&gt;" style="text;strokeColor=none;fillColor=none;align=left;verticalAlign=top;spacingLeft=4;spacingRight=4;overflow=hidden;rotatable=0;points=[[0,0.5],[1,0.5]];portConstraint=eastwest;whiteSpace=wrap;html=1;" parent="B27XfxdTS6M_Y3DWfWtt-12" vertex="1">
          <mxGeometry y="26" width="290" height="84" as="geometry" />
        </mxCell>
        <mxCell id="B27XfxdTS6M_Y3DWfWtt-14" value="" style="line;strokeWidth=1;fillColor=none;align=left;verticalAlign=middle;spacingTop=-1;spacingLeft=3;spacingRight=3;rotatable=0;labelPosition=right;points=[];portConstraint=eastwest;strokeColor=inherit;" parent="B27XfxdTS6M_Y3DWfWtt-12" vertex="1">
          <mxGeometry y="110" width="290" height="8" as="geometry" />
        </mxCell>
        <mxCell id="B27XfxdTS6M_Y3DWfWtt-15" value="&lt;div&gt;&lt;span style=&quot;background-color: transparent; color: light-dark(rgb(0, 0, 0), rgb(255, 255, 255));&quot;&gt;+ realizarCompra(idCliente, idJogo, valor): void&amp;nbsp;&amp;nbsp;&lt;/span&gt;&lt;/div&gt;&lt;div&gt;&lt;font style=&quot;vertical-align: inherit;&quot;&gt;&lt;font style=&quot;vertical-align: inherit;&quot;&gt;&lt;div&gt;+ listarComprasPorCliente(idCliente): List&amp;lt;Compra&amp;gt;&amp;nbsp;&amp;nbsp;&lt;/div&gt;&lt;div&gt;+ obterDetalhesCompra(idCompra): Compra&amp;nbsp;&lt;/div&gt;&lt;/font&gt;&lt;/font&gt;&lt;/div&gt;" style="text;strokeColor=none;fillColor=none;align=left;verticalAlign=top;spacingLeft=4;spacingRight=4;overflow=hidden;rotatable=0;points=[[0,0.5],[1,0.5]];portConstraint=eastwest;whiteSpace=wrap;html=1;" parent="B27XfxdTS6M_Y3DWfWtt-12" vertex="1">
          <mxGeometry y="118" width="290" height="72" as="geometry" />
        </mxCell>
        <mxCell id="B27XfxdTS6M_Y3DWfWtt-16" value="&lt;font style=&quot;vertical-align: inherit;&quot;&gt;&lt;font style=&quot;vertical-align: inherit;&quot;&gt;&lt;font style=&quot;vertical-align: inherit;&quot;&gt;&lt;font style=&quot;vertical-align: inherit;&quot;&gt;&lt;font style=&quot;vertical-align: inherit;&quot;&gt;&lt;font style=&quot;vertical-align: inherit;&quot;&gt;administrador&lt;/font&gt;&lt;/font&gt;&lt;/font&gt;&lt;/font&gt;&lt;/font&gt;&lt;/font&gt;" style="swimlane;fontStyle=1;align=center;verticalAlign=top;childLayout=stackLayout;horizontal=1;startSize=26;horizontalStack=0;resizeParent=1;resizeParentMax=0;resizeLast=0;collapsible=1;marginBottom=0;whiteSpace=wrap;html=1;" parent="WIyWlLk6GJQsqaUBKTNV-1" vertex="1">
          <mxGeometry x="-330" y="475" width="250" height="310" as="geometry">
            <mxRectangle x="-180" y="90" width="70" height="30" as="alternateBounds" />
          </mxGeometry>
        </mxCell>
        <mxCell id="B27XfxdTS6M_Y3DWfWtt-17" value="&lt;div&gt;- idAdm: int&lt;/div&gt;&lt;div&gt;- nmAdm: String&lt;/div&gt;&lt;div&gt;- emailAdm: String&lt;/div&gt;&lt;div&gt;- senhaAdm: String&lt;/div&gt;&lt;div&gt;- empresaAdm: String&lt;/div&gt;&lt;div&gt;- whatsappAdm: String&lt;/div&gt;" style="text;strokeColor=none;fillColor=none;align=left;verticalAlign=top;spacingLeft=4;spacingRight=4;overflow=hidden;rotatable=0;points=[[0,0.5],[1,0.5]];portConstraint=eastwest;whiteSpace=wrap;html=1;" parent="B27XfxdTS6M_Y3DWfWtt-16" vertex="1">
          <mxGeometry y="26" width="250" height="104" as="geometry" />
        </mxCell>
        <mxCell id="B27XfxdTS6M_Y3DWfWtt-18" value="" style="line;strokeWidth=1;fillColor=none;align=left;verticalAlign=middle;spacingTop=-1;spacingLeft=3;spacingRight=3;rotatable=0;labelPosition=right;points=[];portConstraint=eastwest;strokeColor=inherit;" parent="B27XfxdTS6M_Y3DWfWtt-16" vertex="1">
          <mxGeometry y="130" width="250" height="8" as="geometry" />
        </mxCell>
        <mxCell id="B27XfxdTS6M_Y3DWfWtt-19" value="&lt;div&gt;+ criarAdm(idAdm, nmAdm, emailAdm, senhaAdm, whatsappAdm): void&lt;/div&gt;&lt;div&gt;+ autenticar(emailAdm, senhaAdm): boolean&lt;/div&gt;&lt;div&gt;+ editarAdm(idAdm, novosDados): void&lt;/div&gt;&lt;div&gt;+ deletarAdm(idAdm): void&lt;/div&gt;&lt;div&gt;&lt;div&gt;+ enviarJogo(dadosJogo): void&lt;/div&gt;&lt;div&gt;+ editarJogo(idJogo, novosDados): void&lt;/div&gt;&lt;div&gt;+ deletarJogo(idJogo): void&lt;/div&gt;&lt;div&gt;+ listarJogosEnviados(): List&amp;lt;Jogo&amp;gt;&lt;/div&gt;&lt;/div&gt;&lt;div&gt;&lt;div&gt;+ aprovarJogo(idJogo): void&lt;/div&gt;&lt;div&gt;+ visualizarJogosPendentes(): List&amp;lt;Jogo&amp;gt;&lt;/div&gt;&lt;/div&gt;" style="text;strokeColor=none;fillColor=none;align=left;verticalAlign=top;spacingLeft=4;spacingRight=4;overflow=hidden;rotatable=0;points=[[0,0.5],[1,0.5]];portConstraint=eastwest;whiteSpace=wrap;html=1;" parent="B27XfxdTS6M_Y3DWfWtt-16" vertex="1">
          <mxGeometry y="138" width="250" height="172" as="geometry" />
        </mxCell>
        <mxCell id="B27XfxdTS6M_Y3DWfWtt-20" value="&lt;font style=&quot;vertical-align: inherit;&quot;&gt;&lt;font style=&quot;vertical-align: inherit;&quot;&gt;&lt;font style=&quot;vertical-align: inherit;&quot;&gt;&lt;font style=&quot;vertical-align: inherit;&quot;&gt;avaliacao&lt;/font&gt;&lt;/font&gt;&lt;/font&gt;&lt;/font&gt;" style="swimlane;fontStyle=1;align=center;verticalAlign=top;childLayout=stackLayout;horizontal=1;startSize=26;horizontalStack=0;resizeParent=1;resizeParentMax=0;resizeLast=0;collapsible=1;marginBottom=0;whiteSpace=wrap;html=1;" parent="WIyWlLk6GJQsqaUBKTNV-1" vertex="1">
          <mxGeometry x="414" y="520" width="310" height="220" as="geometry">
            <mxRectangle x="-180" y="90" width="70" height="30" as="alternateBounds" />
          </mxGeometry>
        </mxCell>
        <mxCell id="B27XfxdTS6M_Y3DWfWtt-21" value="&lt;div&gt;&lt;div&gt;- idAvaliacao: int&amp;nbsp;&amp;nbsp;&lt;/div&gt;&lt;div&gt;- idCompra: int&amp;nbsp;&amp;nbsp;&lt;/div&gt;&lt;div&gt;- notaAvaliacao: int&amp;nbsp;&amp;nbsp;&lt;/div&gt;&lt;div&gt;- comentario: Text&amp;nbsp;&amp;nbsp;&lt;/div&gt;&lt;div&gt;- dtAvaliacao: DateTime&amp;nbsp;&amp;nbsp;&lt;/div&gt;&lt;/div&gt;" style="text;strokeColor=none;fillColor=none;align=left;verticalAlign=top;spacingLeft=4;spacingRight=4;overflow=hidden;rotatable=0;points=[[0,0.5],[1,0.5]];portConstraint=eastwest;whiteSpace=wrap;html=1;" parent="B27XfxdTS6M_Y3DWfWtt-20" vertex="1">
          <mxGeometry y="26" width="310" height="84" as="geometry" />
        </mxCell>
        <mxCell id="B27XfxdTS6M_Y3DWfWtt-22" value="" style="line;strokeWidth=1;fillColor=none;align=left;verticalAlign=middle;spacingTop=-1;spacingLeft=3;spacingRight=3;rotatable=0;labelPosition=right;points=[];portConstraint=eastwest;strokeColor=inherit;" parent="B27XfxdTS6M_Y3DWfWtt-20" vertex="1">
          <mxGeometry y="110" width="310" height="8" as="geometry" />
        </mxCell>
        <mxCell id="B27XfxdTS6M_Y3DWfWtt-23" value="&lt;div&gt;&lt;span style=&quot;background-color: transparent; color: light-dark(rgb(0, 0, 0), rgb(255, 255, 255));&quot;&gt;+ adicionarAvaliacao(idCompra, notaAvaliacao, comentario): void&amp;nbsp;&amp;nbsp;&lt;/span&gt;&lt;/div&gt;&lt;div&gt;&lt;font style=&quot;vertical-align: inherit;&quot;&gt;&lt;font style=&quot;vertical-align: inherit;&quot;&gt;&lt;font style=&quot;vertical-align: inherit;&quot;&gt;&lt;font style=&quot;vertical-align: inherit;&quot;&gt;&lt;div&gt;+ editarAvaliacao(idCompra, novaNota, novoComentario): void&amp;nbsp;&amp;nbsp;&lt;/div&gt;&lt;div&gt;+ deletarAvaliacao(idAvaliacao): void&amp;nbsp;&amp;nbsp;&lt;/div&gt;&lt;div&gt;+ listarAvaliacoesPorJogo(idJogo): List&amp;lt;Avaliacao&amp;gt;&lt;/div&gt;&lt;/font&gt;&lt;/font&gt;&lt;/font&gt;&lt;/font&gt;&lt;/div&gt;" style="text;strokeColor=none;fillColor=none;align=left;verticalAlign=top;spacingLeft=4;spacingRight=4;overflow=hidden;rotatable=0;points=[[0,0.5],[1,0.5]];portConstraint=eastwest;whiteSpace=wrap;html=1;" parent="B27XfxdTS6M_Y3DWfWtt-20" vertex="1">
          <mxGeometry y="118" width="310" height="102" as="geometry" />
        </mxCell>
      </root>
    </mxGraphModel>
  </diagram>
</mxfile>
